<?xml version="1.0" standalone="no"?>
<!DOCTYPE svg PUBLIC "-//W3C//DTD SVG 20010904//EN"
 "http://www.w3.org/TR/2001/REC-SVG-20010904/DTD/svg10.dtd">
<svg version="1.0" xmlns="http://www.w3.org/2000/svg"
 width="260.000000pt" height="260.000000pt" viewBox="0 0 260.000000 260.000000"
 preserveAspectRatio="xMidYMid meet">
<metadata>
Created by potrace 1.11, written by Peter Selinger 2001-2013
</metadata>
<g transform="translate(0.000000,260.000000) scale(0.100000,-0.100000)"
fill="#000000" stroke="none">
<path d="M984 2582 c-114 -47 -160 -168 -104 -274 24 -46 37 -59 91 -88 31
-16 39 -27 50 -72 13 -54 14 -83 3 -128 -3 -14 -6 -34 -7 -45 -2 -18 -10 -20
-102 -21 -103 -1 -176 -14 -226 -39 -41 -22 -57 -19 -64 13 -17 73 -92 113
-173 91 -88 -24 -129 -132 -79 -207 14 -22 41 -47 61 -56 l36 -17 -23 -37
c-41 -65 -67 -131 -83 -205 -20 -95 -17 -253 7 -337 10 -36 17 -65 16 -66 -16
-11 -58 -11 -69 -1 -22 22 -77 40 -121 40 -119 -1 -208 -105 -193 -225 21
-161 206 -231 325 -123 21 19 44 52 51 75 15 45 22 53 66 67 29 10 33 8 84
-42 63 -64 139 -106 239 -134 41 -11 76 -23 79 -26 8 -8 8 -72 0 -125 -11 -72
-80 -203 -115 -218 -96 -41 -103 -192 -10 -247 92 -54 198 1 213 111 2 19 0
44 -6 54 -8 14 0 37 31 102 62 125 133 197 184 184 12 -3 56 -8 96 -12 46 -3
81 -12 91 -21 26 -23 72 -104 76 -133 2 -13 8 -30 14 -37 6 -7 8 -13 5 -13 -3
0 -1 -16 3 -35 5 -21 4 -38 -2 -41 -22 -14 -46 -87 -41 -128 19 -168 224 -222
319 -85 62 90 23 221 -79 264 -15 6 -28 15 -27 19 1 3 -4 32 -11 64 -7 31 -12
89 -11 127 3 78 -4 70 112 153 62 44 68 46 139 49 90 3 119 -12 147 -71 22
-47 78 -89 111 -83 13 2 23 0 23 -5 0 -11 62 15 89 38 11 10 21 24 21 30 0 7
4 14 9 16 14 5 19 80 7 108 -26 64 -72 92 -153 94 -80 2 -90 17 -92 134 -2 53
-4 113 -5 133 -2 19 1 45 5 57 9 23 77 62 121 68 15 2 42 6 58 8 17 2 30 1 30
-4 0 -12 71 -83 98 -98 33 -18 100 -23 147 -11 50 14 126 89 142 142 15 50 10
145 -11 185 -34 65 -101 111 -169 116 -81 6 -167 -43 -199 -114 -8 -18 -23
-32 -38 -35 -45 -10 -116 -8 -138 4 -12 6 -22 9 -22 5 0 -3 -6 -1 -14 5 -10 9
-14 34 -13 92 l1 81 124 -5 c132 -4 145 1 135 48 -2 11 -5 67 -7 125 -2 58 -4
108 -5 112 0 5 -16 6 -33 3 -18 -2 -67 -7 -108 -10 -41 -3 -85 -7 -97 -9 -13
-3 -23 -1 -23 4 0 10 40 26 75 29 8 0 30 15 49 31 53 47 64 111 30 174 -51 96
-176 100 -238 10 -15 -22 -26 -53 -26 -71 0 -26 -12 -45 -57 -93 -31 -33 -62
-60 -70 -60 -7 0 -13 -4 -13 -9 0 -5 -16 -12 -36 -16 -28 -5 -49 0 -99 24 -70
34 -161 59 -245 67 -30 3 -60 7 -66 9 -13 4 -64 87 -69 113 -2 9 -8 37 -13 61
-10 41 -9 46 14 63 24 19 54 67 62 98 21 88 -34 198 -117 231 -47 19 -124 19
-167 1z"/>
</g>
</svg>
